<svg width="128" height="128" viewBox="0 0 128 128" fill="none" xmlns="http://www.w3.org/2000/svg">
<g clip-path="url(#clip0_102_240)">
<path d="M89.3938 122.635C81.6328 126.084 73.0402 128 64 128C54.9598 128 46.3672 126.084 38.6062 122.635V51.4279C38.6062 38.5755 31.6651 26.7251 20.455 20.4391C31.65 9.59587 46.8817 2.89567 63.6781 2.81111C98.3689 2.63661 126.707 30.9213 126.595 65.6121C126.553 78.3587 122.702 90.2085 116.12 100.082H111.947C99.491 100.082 89.3938 110.179 89.3938 122.635Z" fill="#533672"/>
<path d="M116.12 25.5489V100.082C110.613 108.342 103.196 115.218 94.499 120.08H47.1377C27.9888 109.375 15.0422 88.902 15.0422 65.4052C15.0422 47.7585 22.3446 31.8178 34.0919 20.4391H111.01C113.832 20.4391 116.12 22.7267 116.12 25.5489Z" fill="#4CACBA"/>
<path d="M48.2026 20.4391V120.08H33.5007C28.5407 117.307 23.9965 113.879 19.9859 109.912C18.7685 108.708 17.3395 105.658 15.94 101.994C11.7558 91.0404 9.67154 79.3968 9.67154 67.6713V37.7004C9.67154 35.3673 10.3379 33.0774 11.6173 31.1262C14.1643 27.242 17.1318 23.658 20.455 20.4391H48.2026Z" fill="#3F97A4"/>
<path d="M100.79 35.7685C100.79 32.9463 103.078 30.6587 105.9 30.6587C108.722 30.6587 111.01 32.9463 111.01 35.7685C111.01 38.5906 108.722 40.8783 105.9 40.8783C103.078 40.8783 100.79 38.5906 100.79 35.7685ZM105.9 97.0858C103.078 97.0858 100.79 99.3735 100.79 102.196C100.79 105.018 103.078 107.305 105.9 107.305C108.722 107.305 111.01 105.018 111.01 102.196C111.01 99.3735 108.722 97.0858 105.9 97.0858ZM105.9 84.3114C103.078 84.3114 100.79 86.599 100.79 89.4212C100.79 92.2433 103.078 94.5309 105.9 94.5309C108.722 94.5309 111.01 92.2433 111.01 89.4212C111.01 86.599 108.722 84.3114 105.9 84.3114ZM105.9 43.4331C103.078 43.4331 100.79 45.7208 100.79 48.5429C100.79 51.3651 103.078 53.6527 105.9 53.6527C108.722 53.6527 111.01 51.3651 111.01 48.5429C111.01 45.7208 108.722 43.4331 105.9 43.4331ZM105.9 56.2076C103.078 56.2076 100.79 58.4952 100.79 61.3174V76.6467C100.79 79.4688 103.078 81.7565 105.9 81.7565C108.722 81.7565 111.01 79.4688 111.01 76.6467V61.3174C111.01 58.4952 108.722 56.2076 105.9 56.2076Z" fill="#95CED6"/>
<path d="M100.943 34.525C101.498 32.3038 103.507 30.6587 105.9 30.6587C108.293 30.6587 110.302 32.3038 110.857 34.525C110.302 36.7462 108.293 38.3913 105.9 38.3913C103.507 38.3913 101.498 36.7462 100.943 34.525ZM105.9 51.166C108.293 51.166 110.302 49.5209 110.857 47.2997C110.302 45.0782 108.293 43.4331 105.9 43.4331C103.507 43.4331 101.498 45.0782 100.943 47.2995C101.498 49.5207 103.507 51.166 105.9 51.166ZM105.9 56.2076C103.078 56.2076 100.79 58.4952 100.79 61.3174V74.16C100.79 76.9822 103.078 79.2698 105.9 79.2698C108.722 79.2698 111.01 76.9822 111.01 74.16V61.3174C111.01 58.4952 108.722 56.2076 105.9 56.2076ZM105.9 84.3114C103.507 84.3114 101.498 85.9565 100.943 88.1777C101.498 90.3989 103.507 92.044 105.9 92.044C108.293 92.044 110.302 90.3989 110.857 88.1777C110.302 85.9565 108.293 84.3114 105.9 84.3114ZM105.9 97.0858C103.507 97.0858 101.498 98.7309 100.943 100.952C101.498 103.173 103.507 104.818 105.9 104.818C108.293 104.818 110.302 103.173 110.857 100.952C110.302 98.7309 108.293 97.0858 105.9 97.0858Z" fill="#BADFE4"/>
<path d="M89.3938 122.635H44.5828V114.97H102.234C98.2989 118.01 93.9924 120.591 89.3938 122.635Z" fill="#70BDC8"/>
<path d="M25.7663 114.97H48.2026V122.635H38.6062C34.0076 120.591 29.7011 118.01 25.7663 114.97Z" fill="#4CACBA"/>
<path d="M92.3657 90.1751H26.1253C12.5563 90.1751 3.37731 79.2379 3.32136 65.6691C3.3211 65.5812 3.32136 65.4933 3.32136 65.4052C3.32136 55.3233 5.70481 45.7985 9.93903 37.3627C10.1907 36.8612 8.53282 36.3635 8.79751 35.8699C9.75789 34.0789 10.8026 32.3401 11.9267 30.6587H90.5709C93.393 30.6587 95.6806 32.9463 95.6806 35.7685V86.8599C95.6806 88.6907 94.1965 90.1751 92.3657 90.1751Z" fill="#F9F1D2"/>
<path d="M95.6806 104.75C95.6806 107.573 93.393 109.86 90.5709 109.86H19.9338C8.49169 98.5178 1.40519 82.7891 1.40519 65.4052C1.40519 54.7242 4.08067 44.6679 8.79751 35.8701C17.6216 35.75 26.7323 39.1841 31.5529 45.2215C38.6069 54.0568 33.4872 64.7271 41.517 71.0259C46.5345 74.9617 51.4685 73.0982 60.4232 73.5808C70.9743 74.1495 85.7273 77.9016 95.6806 85.7454V104.75Z" fill="#FFF36C"/>
<path d="M78.5327 90.1751C77.1217 90.1751 75.9778 89.0313 75.9778 87.6202V64.6262C75.9778 63.2151 77.1217 62.0713 78.5327 62.0713C79.9438 62.0713 81.0876 63.2151 81.0876 64.6262V87.6202C81.0876 89.0313 79.9438 90.1751 78.5327 90.1751Z" fill="#23535A"/>
<path d="M78.5327 68.982C73.5941 68.982 69.5906 64.9785 69.5906 60.0399V8.94212C69.5906 4.00351 73.5941 0 78.5327 0C83.4713 0 87.4748 4.00351 87.4748 8.94212V60.0399C87.4748 64.9785 83.4713 68.982 78.5327 68.982Z" fill="#E5554E"/>
<path d="M87.4748 8.94217V60.04C87.4748 63.6572 85.3272 66.7726 82.2373 68.1809C79.1474 66.7726 76.9998 63.6572 76.9998 60.04V8.94217C76.9998 5.32496 79.1474 2.20952 82.2373 0.80127C85.3272 2.20952 87.4748 5.32496 87.4748 8.94217Z" fill="#F76C57"/>
<path d="M78.5327 82.5104C73.5941 82.5104 69.5906 78.5069 69.5906 73.5683V42.9096C69.5906 37.971 73.5941 33.9675 78.5327 33.9675C83.4713 33.9675 87.4748 37.971 87.4748 42.9096V73.5683C87.4748 78.5069 83.4713 82.5104 78.5327 82.5104Z" fill="#F76C57"/>
<path d="M87.4748 42.9096V73.5683C87.4748 77.1855 85.3272 80.301 82.2373 81.7092C79.1474 80.301 76.9998 77.1855 76.9998 73.5683V34.0986C77.498 34.0125 78.01 33.9675 78.5327 33.9675C83.4713 33.9675 87.4748 37.971 87.4748 42.9096Z" fill="#F87B67"/>
<path d="M78.5327 67.1811C77.1217 67.1811 75.9778 66.0373 75.9778 64.6263V46.742C75.9778 45.331 77.1217 44.1871 78.5327 44.1871C79.9438 44.1871 81.0876 45.331 81.0876 46.742V64.6263C81.0876 66.0373 79.9438 67.1811 78.5327 67.1811Z" fill="#E5554E"/>
<path d="M78.5327 49.2969C77.1217 49.2969 75.9778 48.1531 75.9778 46.742C75.9778 45.331 77.1217 44.1871 78.5327 44.1871C79.9438 44.1871 81.0876 45.331 81.0876 46.742C81.0876 48.1531 79.9438 49.2969 78.5327 49.2969Z" fill="#FCCFC9"/>
<path d="M83.8244 103.046C84.5076 105.39 84.5814 107.703 84.3042 109.86H19.9338C8.49169 98.5178 1.40519 82.7892 1.40519 65.4052C1.40519 56.5704 3.23577 48.1632 6.53796 40.5417C12.6043 43.1342 18.1287 49.6719 18.957 50.6716C29.8587 63.8331 23.6736 74.1751 32.4854 81.3479C40.586 87.9416 47.5943 80.6517 65.1127 87.6636C71.3522 90.1613 81.221 94.1112 83.8244 103.046Z" fill="#EAC23F"/>
<path d="M64.9167 109.86H19.9338C8.49169 98.5178 1.40519 82.7891 1.40519 65.4051C1.40519 58.2474 2.60675 51.3701 4.81903 44.9642C9.09209 48.6208 9.14548 53.6864 9.70858 54.5954C18.71 69.1228 11.9234 79.7146 19.6727 88.0241C26.7965 95.6627 34.7348 89.3986 51.131 98.7383C55.6974 101.339 61.5872 103.932 64.9167 109.86Z" fill="#E5554E"/>
<path d="M67.9297 109.617L66.7869 109.86H32.7373C20.7153 99.7357 11.8465 85.6826 8.31796 69.1197C6.73086 61.6694 6.33766 54.2429 7.00883 47.0386C10.1582 50.3065 12.3991 53.8499 12.8611 54.5957C21.8625 69.123 14.3222 78.5233 22.0714 86.8328C29.1952 94.4714 37.1335 88.2073 53.5298 97.547C58.0336 100.112 64.557 103.828 67.9297 109.617Z" fill="#F76C57"/>
</g>
<defs>
<clipPath id="clip0_102_240">
<rect width="128" height="128" fill="white"/>
</clipPath>
</defs>
</svg>
