<svg width="680" height="593" viewBox="0 0 680 593" fill="none" xmlns="http://www.w3.org/2000/svg">
<path d="M-6 0H664C672.837 0 680 7.16344 680 16V490C680 498.837 672.837 506 664 506H-6V0Z" fill="#294BA2"/>
<g style="mix-blend-mode:overlay" opacity="0.7">
<path d="M307 326.5C307 473.684 187.236 593 39.5 593C-108.236 593 -228 473.684 -228 326.5C-228 179.316 -108.236 60 39.5 60C187.236 60 307 179.316 307 326.5ZM-174.241 326.5C-174.241 444.104 -78.5456 539.442 39.5 539.442C157.546 539.442 253.241 444.104 253.241 326.5C253.241 208.896 157.546 113.558 39.5 113.558C-78.5456 113.558 -174.241 208.896 -174.241 326.5Z" fill="#91A4AE"/>
</g>
<g style="mix-blend-mode:overlay" opacity="0.7">
<path d="M458 187.5C458 220.361 430.466 247 396.5 247C362.534 247 335 220.361 335 187.5C335 154.639 362.534 128 396.5 128C430.466 128 458 154.639 458 187.5ZM361.4 187.5C361.4 206.255 377.115 221.458 396.5 221.458C415.885 221.458 431.6 206.255 431.6 187.5C431.6 168.745 415.885 153.542 396.5 153.542C377.115 153.542 361.4 168.745 361.4 187.5Z" fill="#91A4AE"/>
</g>
</svg>
