<svg width="32" height="34" viewBox="0 0 32 34" fill="none" xmlns="http://www.w3.org/2000/svg">
<path d="M7.51001 27.2919C7.02371 27.2928 6.53945 27.2257 6.07001 27.0924C4.66091 26.6706 3.46544 25.6859 2.74008 24.3495C2.01471 23.0131 1.81723 21.4315 2.19001 19.9441L4.52001 10.6648C4.70147 9.91386 5.02406 9.20852 5.46883 8.59023C5.9136 7.97194 6.47158 7.45318 7.11001 7.06441C7.73164 6.68647 8.41853 6.44176 9.1309 6.34446C9.84326 6.24716 10.5669 6.29921 11.26 6.49758C11.9968 6.71233 12.683 7.08541 13.2751 7.59316C13.8673 8.10091 14.3525 8.73227 14.7 9.4472H17.3C17.646 8.73112 18.1307 8.09884 18.7231 7.5909C19.3155 7.08295 20.0025 6.71055 20.74 6.49758C21.4331 6.29921 22.1568 6.24716 22.8691 6.34446C23.5815 6.44176 24.2684 6.68647 24.89 7.06441C25.5253 7.45218 26.0813 7.9681 26.5258 8.58243C26.9703 9.19676 27.2946 9.89736 27.48 10.6438L29.81 19.9441C30.1884 21.4359 29.9924 23.024 29.2646 24.3655C28.5367 25.7069 27.3354 26.694 25.92 27.1134C25.2269 27.3118 24.5033 27.3639 23.7909 27.2666C23.0785 27.1693 22.3916 26.9246 21.77 26.5466C21.1336 26.1602 20.5769 25.6447 20.1322 25.0302C19.6876 24.4156 19.3639 23.7144 19.18 22.9672L19 22.0434H13L12.77 22.9462C12.5862 23.6934 12.2625 24.3947 11.8178 25.0092C11.3731 25.6237 10.8164 26.1392 10.18 26.5256C9.36749 27.0175 8.44794 27.2814 7.51001 27.2919ZM9.83001 8.39751C9.22655 8.39966 8.63393 8.56603 8.11001 8.88037C7.28886 9.38609 6.69199 10.2127 6.45001 11.1792L4.12001 20.4584C3.8762 21.4144 3.99939 22.4327 4.46313 23.2943C4.92686 24.156 5.69412 24.7923 6.60001 25.0665C7.03751 25.1918 7.49434 25.2248 7.94406 25.1635C8.39378 25.1023 8.82746 24.948 9.22001 24.7097C9.62871 24.462 9.98611 24.131 10.2712 23.7362C10.5563 23.3414 10.7633 22.8908 10.88 22.4108L11.5 19.9441H20.5L21.11 22.4108C21.2288 22.8899 21.4366 23.3396 21.7215 23.7341C22.0064 24.1286 22.3627 24.4601 22.77 24.7097C23.1645 24.9478 23.5998 25.1018 24.0511 25.1631C24.5024 25.2243 24.9608 25.1915 25.4 25.0665C26.307 24.7949 27.0752 24.1585 27.5377 23.2956C28.0002 22.4328 28.1196 21.4132 27.87 20.4584L25.54 11.1792C25.4239 10.7003 25.2183 10.2505 24.935 9.85581C24.6517 9.46115 24.2965 9.12957 23.89 8.88037C23.4955 8.64226 23.0602 8.48818 22.6089 8.42694C22.1576 8.3657 21.6992 8.3985 21.26 8.52348C20.7169 8.686 20.2185 8.98221 19.8063 9.3875C19.3941 9.79279 19.08 10.2955 18.89 10.8538L18.65 11.5466H13.35L13.11 10.8538C12.9184 10.2947 12.6025 9.79169 12.1886 9.38642C11.7746 8.98115 11.2746 8.68532 10.73 8.52348C10.4365 8.44041 10.134 8.39806 9.83001 8.39751Z" fill="#4275FA"/>
<path d="M10 16.795C9.60444 16.795 9.21776 16.6719 8.88886 16.4412C8.55996 16.2105 8.30362 15.8826 8.15224 15.499C8.00087 15.1154 7.96126 14.6933 8.03843 14.2861C8.1156 13.8788 8.30608 13.5047 8.58579 13.2111C8.86549 12.9175 9.22186 12.7176 9.60982 12.6366C9.99778 12.5556 10.3999 12.5972 10.7654 12.7561C11.1308 12.915 11.4432 13.184 11.6629 13.5293C11.8827 13.8745 12 14.2804 12 14.6956C12 15.2524 11.7893 15.7864 11.4142 16.1801C11.0391 16.5738 10.5304 16.795 10 16.795Z" fill="#4275FA"/>
<path d="M22 13.6459C22.5523 13.6459 23 13.176 23 12.5963C23 12.0165 22.5523 11.5466 22 11.5466C21.4477 11.5466 21 12.0165 21 12.5963C21 13.176 21.4477 13.6459 22 13.6459Z" fill="#4275FA"/>
<path d="M22 17.8447C22.5523 17.8447 23 17.3747 23 16.795C23 16.2153 22.5523 15.7453 22 15.7453C21.4477 15.7453 21 16.2153 21 16.795C21 17.3747 21.4477 17.8447 22 17.8447Z" fill="#4275FA"/>
<path d="M20 15.7453C20.5523 15.7453 21 15.2753 21 14.6956C21 14.1159 20.5523 13.6459 20 13.6459C19.4477 13.6459 19 14.1159 19 14.6956C19 15.2753 19.4477 15.7453 20 15.7453Z" fill="#4275FA"/>
<path d="M24 15.7453C24.5523 15.7453 25 15.2753 25 14.6956C25 14.1159 24.5523 13.6459 24 13.6459C23.4477 13.6459 23 14.1159 23 14.6956C23 15.2753 23.4477 15.7453 24 15.7453Z" fill="#4275FA"/>
</svg>
