<svg width="122" height="128" viewBox="0 0 122 128" fill="none" xmlns="http://www.w3.org/2000/svg">
<path d="M114.631 36.702H32.6922C31.3455 36.702 30.25 35.6065 30.25 34.2597V13.9177C12.1507 24.561 0 44.235 0 66.75C0 100.577 27.4225 128 61.25 128C95.0775 128 122.5 100.577 122.5 66.75C122.5 55.8302 119.639 45.58 114.631 36.702Z" fill="#FED2A4"/>
<path d="M110 44.78H14.7525C13.3705 44.78 12.25 45.9005 12.25 47.2825V57.4013L14.392 57.6515H110.564L112.503 57.4013V47.2825C112.503 45.9003 111.382 44.78 110 44.78Z" fill="#0593FC"/>
<path d="M24.9972 47.2825C24.9972 45.9005 26.1178 44.78 27.4998 44.78H14.7525C13.3705 44.78 12.25 45.9005 12.25 47.2825V57.4013H24.9972V47.2825Z" fill="#0182FC"/>
<path d="M98.2793 111.996C97.8717 111.589 97.8717 110.926 98.2793 110.518L103.271 105.526C103.468 105.329 103.731 105.22 104.01 105.22C104.289 105.22 104.552 105.329 104.749 105.526L112.503 113.28V57.401H12.25V103.504C16.9443 109.752 22.8045 115.074 29.5095 119.144H105.427L98.2793 111.996Z" fill="#EAF6FF"/>
<path d="M24.9972 57.401H12.25V103.504C15.858 108.306 20.1572 112.559 24.9972 116.119V57.401Z" fill="#D8ECFE"/>
<path d="M30.229 81.3441V67.0456C30.229 66.6163 29.881 66.2683 29.4517 66.2683H23.7135C23.2842 66.2683 22.9362 66.6163 22.9362 67.0456V81.3441H30.229Z" fill="#80D261"/>
<path d="M26.7773 66.2686H23.7133C23.284 66.2686 22.936 66.6166 22.936 67.0458V81.3443H26V67.0458C26 66.6166 26.348 66.2686 26.7773 66.2686Z" fill="#68CA44"/>
<path d="M40.196 81.344V73.2508C40.196 72.8215 39.848 72.4735 39.4188 72.4735H33.6805C33.2513 72.4735 32.9033 72.8215 32.9033 73.2508V81.344H40.196Z" fill="#FE646F"/>
<path d="M36.7345 72.4738H33.6805C33.2513 72.4738 32.9033 72.8218 32.9033 73.251V81.3443H35.9573V73.251C35.957 72.8218 36.305 72.4738 36.7345 72.4738Z" fill="#FD4755"/>
<path d="M50.163 81.3441V70.6598C50.163 70.2306 49.815 69.8826 49.3857 69.8826H43.6475C43.2182 69.8826 42.8702 70.2306 42.8702 70.6598V81.3441H50.163Z" fill="#FE9901"/>
<path d="M47.0272 69.8826H43.6472C43.218 69.8826 42.87 70.2306 42.87 70.6598V81.3441H46.25V70.6598C46.25 70.2306 46.598 69.8826 47.0272 69.8826Z" fill="#FB8801"/>
<path d="M103.271 105.526L97.7497 100.005C96.3777 101.936 94.689 103.625 92.7582 104.997L98.2792 110.518L103.271 105.526Z" fill="#6C7FD8"/>
<path d="M114.34 121.587C112.456 123.471 109.4 123.471 107.516 121.587L98.1025 112.173C97.5965 111.667 97.5965 110.847 98.1025 110.341L103.094 105.35C103.6 104.844 104.42 104.844 104.926 105.35L114.34 114.763C116.224 116.647 116.224 119.703 114.34 121.587Z" fill="#4F66D0"/>
<path d="M113.013 121.587L103.6 112.173C103.094 111.667 103.094 110.847 103.6 110.341L106.758 107.182L104.926 105.35C104.42 104.844 103.6 104.844 103.094 105.35L98.1022 110.341C97.5962 110.847 97.5962 111.667 98.1022 112.173L107.516 121.587C109.193 123.264 111.795 123.444 113.676 122.136C113.444 121.975 113.22 121.794 113.013 121.587Z" fill="#314DC9"/>
<path d="M80.6213 109.124C92.3605 109.124 101.877 99.6078 101.877 87.8685C101.877 76.1293 92.3605 66.6128 80.6213 66.6128C68.882 66.6128 59.3655 76.1293 59.3655 87.8685C59.3655 99.6078 68.882 109.124 80.6213 109.124Z" fill="#FE646F"/>
<path d="M65.7385 87.8685C65.7385 77.2123 73.5803 68.389 83.8078 66.8513C82.7683 66.695 81.7045 66.6128 80.6213 66.6128C68.882 66.6128 59.3655 76.1293 59.3655 87.8685C59.3655 99.6078 68.882 109.124 80.6213 109.124C81.7043 109.124 82.7683 109.042 83.8078 108.886C73.5803 107.348 65.7385 98.5245 65.7385 87.8685Z" fill="#FD4755"/>
<path d="M80.6212 103.448C89.2254 103.448 96.2005 96.4727 96.2005 87.8686C96.2005 79.2644 89.2254 72.2893 80.6212 72.2893C72.0171 72.2893 65.042 79.2644 65.042 87.8686C65.042 96.4727 72.0171 103.448 80.6212 103.448Z" fill="white"/>
<path d="M71.3418 87.8686C71.3418 80.3436 76.677 74.0648 83.7713 72.6083C82.754 72.3993 81.7005 72.2896 80.6215 72.2896C72.0173 72.2896 65.0423 79.2646 65.0423 87.8688C65.0423 96.4731 72.0173 103.448 80.6215 103.448C81.7005 103.448 82.754 103.338 83.7713 103.129C76.677 101.672 71.3418 95.3936 71.3418 87.8686Z" fill="#F5F8F9"/>
<path d="M101.905 74.9138L89.378 87.4411L82.8155 80.8788C82.0832 80.1466 80.896 80.1466 80.164 80.8788L73.0967 87.9461C74.4417 88.2366 75.4602 89.4058 75.5255 90.8206L81.49 84.8561L88.0525 91.4183C88.7847 92.1506 89.972 92.1506 90.704 91.4183L104.557 77.5651L101.905 74.9138Z" fill="#8AC9FE"/>
<path d="M107.75 70.9913L100.684 72.7585C100.231 72.8718 100.075 73.4363 100.405 73.7665L105.704 79.0655C106.034 79.3958 106.599 79.2395 106.712 78.7863L108.479 71.72C108.589 71.28 108.191 70.8813 107.75 70.9913Z" fill="#60B7FF"/>
<path d="M72.444 94.3022C74.2878 94.3022 75.7825 92.8075 75.7825 90.9637C75.7825 89.1199 74.2878 87.6252 72.444 87.6252C70.6002 87.6252 69.1055 89.1199 69.1055 90.9637C69.1055 92.8075 70.6002 94.3022 72.444 94.3022Z" fill="#60B7FF"/>
<path d="M53.5665 84.8441H21.026C19.9905 84.8441 19.151 84.0046 19.151 82.9691C19.151 81.9336 19.9905 81.0941 21.026 81.0941H53.5665C54.602 81.0941 55.4415 81.9336 55.4415 82.9691C55.4415 84.0046 54.602 84.8441 53.5665 84.8441Z" fill="#60B7FF"/>
<path d="M24.8808 92.5543H21.026C19.9905 92.5543 19.151 91.7148 19.151 90.6793C19.151 89.6438 19.9905 88.8043 21.026 88.8043H24.8808C25.9163 88.8043 26.7558 89.6438 26.7558 90.6793C26.7558 91.7148 25.9163 92.5543 24.8808 92.5543Z" fill="#60B7FF"/>
<path d="M24.8808 99.4723H21.026C19.9905 99.4723 19.151 98.6328 19.151 97.5973C19.151 96.5618 19.9905 95.7223 21.026 95.7223H24.8808C25.9163 95.7223 26.7558 96.5618 26.7558 97.5973C26.7558 98.6328 25.9163 99.4723 24.8808 99.4723Z" fill="#8AC9FE"/>
<path d="M24.8808 106.39H21.026C19.9905 106.39 19.151 105.551 19.151 104.515C19.151 103.48 19.9905 102.64 21.026 102.64H24.8808C25.9163 102.64 26.7558 103.48 26.7558 104.515C26.7558 105.551 25.9163 106.39 24.8808 106.39Z" fill="#8AC9FE"/>
<path d="M53.5665 92.5543H30.229C29.1935 92.5543 28.354 91.7148 28.354 90.6793C28.354 89.6438 29.1935 88.8043 30.229 88.8043H53.5665C54.602 88.8043 55.4415 89.6438 55.4415 90.6793C55.4415 91.7148 54.602 92.5543 53.5665 92.5543Z" fill="#60B7FF"/>
<path d="M53.5665 99.4723H30.229C29.1935 99.4723 28.354 98.6328 28.354 97.5973C28.354 96.5618 29.1935 95.7223 30.229 95.7223H53.5665C54.602 95.7223 55.4415 96.5618 55.4415 97.5973C55.4415 98.6328 54.602 99.4723 53.5665 99.4723Z" fill="#8AC9FE"/>
<path d="M53.5665 106.39H30.229C29.1935 106.39 28.354 105.551 28.354 104.515C28.354 103.48 29.1935 102.64 30.229 102.64H53.5665C54.602 102.64 55.4415 103.48 55.4415 104.515C55.4415 105.551 54.602 106.39 53.5665 106.39Z" fill="#8AC9FE"/>
<path d="M118.308 36.952H32.6922C31.2052 36.952 30 35.7465 30 34.2598V2.69225C30 1.2055 31.2055 0 32.6922 0H118.308C119.794 0 121 1.2055 121 2.69225V34.2595C121 35.7465 119.794 36.952 118.308 36.952Z" fill="#0593FC"/>
<path d="M40.25 34.2595V2.69225C40.25 1.2055 41.4555 0 42.9422 0H32.6922C31.2055 0 30 1.2055 30 2.69225V34.2595C30 35.7465 31.2055 36.9518 32.6922 36.9518H42.9422C41.4555 36.952 40.25 35.7465 40.25 34.2595Z" fill="#0182FC"/>
<path d="M49.0545 7.39547C42.4485 7.69622 37.2245 13.2975 37.5348 20.0462C37.8198 26.2412 42.848 31.2692 49.0428 31.5542C55.7915 31.8647 61.3925 26.6405 61.6935 20.0345C61.7073 19.73 61.4638 19.475 61.159 19.475H50.1473C49.8525 19.475 49.6138 19.2362 49.6138 18.9415V7.92972C49.614 7.62497 49.3588 7.38147 49.0545 7.39547Z" fill="#FFD15B"/>
<path d="M54.5988 28.4093C48.4038 28.1243 43.3758 23.096 43.0908 16.9013C42.926 13.3203 44.3198 10.0628 46.651 7.74829C41.2293 9.11379 37.263 14.1405 37.5348 20.046C37.8198 26.241 42.848 31.269 49.0428 31.554C52.592 31.7173 55.8223 30.3485 58.1328 28.0543C57.0088 28.3375 55.823 28.4655 54.5988 28.4093Z" fill="#FFC344"/>
<path d="M63.9265 16.7075C64.2313 16.7075 64.4748 16.4525 64.461 16.148C64.303 12.68 62.6845 9.593 60.206 7.4875C58.2293 5.80825 55.7055 4.7535 52.9395 4.62775C52.6358 4.614 52.3815 4.858 52.3815 5.162V16.1738C52.3815 16.4685 52.6203 16.7073 52.915 16.7073L63.9265 16.7075Z" fill="#80D261"/>
<path d="M56.5 16.174V5.3365C55.3805 4.931 54.1848 4.6845 52.9393 4.62775C52.6355 4.614 52.3813 4.858 52.3813 5.162V16.1738C52.3813 16.4685 52.62 16.7073 52.9148 16.7073H57.0333C56.7388 16.7075 56.5 16.4688 56.5 16.174Z" fill="#68CA44"/>
<path d="M76.1635 26.4422V19.1827C76.1635 18.1472 75.324 17.3077 74.2885 17.3077C73.253 17.3077 72.4135 18.1472 72.4135 19.1827V26.4422H76.1635Z" fill="#FE9901"/>
<path d="M83.0287 26.4422V8.68274C83.0287 7.64724 82.1892 6.80774 81.1537 6.80774C80.1182 6.80774 79.2787 7.64724 79.2787 8.68274V26.4422H83.0287Z" fill="#80D261"/>
<path d="M89.8942 26.4422V12.7212C89.8942 11.6857 89.0547 10.8462 88.0192 10.8462C86.9837 10.8462 86.1442 11.6857 86.1442 12.7212V26.4422H89.8942Z" fill="#FFD15B"/>
<path d="M96.7597 26.4422V19.1827C96.7597 18.1472 95.9202 17.3077 94.8847 17.3077C93.8492 17.3077 93.0097 18.1472 93.0097 19.1827V26.4422H96.7597Z" fill="#FE9901"/>
<path d="M103.625 26.4422V12.7212C103.625 11.6857 102.786 10.8462 101.75 10.8462C100.714 10.8462 99.875 11.6857 99.875 12.7212V26.4422H103.625Z" fill="#80D261"/>
<path d="M110.49 26.4422V21.6057C110.49 20.5702 109.651 19.7307 108.615 19.7307C107.58 19.7307 106.74 20.5702 106.74 21.6057V26.4422H110.49Z" fill="#FE646F"/>
<path d="M113.663 29.9423H69.2402C68.2047 29.9423 67.3652 29.1028 67.3652 28.0673C67.3652 27.0318 68.2047 26.1923 69.2402 26.1923H113.663C114.699 26.1923 115.538 27.0318 115.538 28.0673C115.538 29.1028 114.699 29.9423 113.663 29.9423Z" fill="white"/>
<path d="M93.128 52.75C94.1635 52.75 95.003 51.9105 95.003 50.875C95.003 49.8395 94.1635 49 93.128 49C92.0925 49 91.253 49.8395 91.253 50.875C91.253 51.9105 92.0925 52.75 93.128 52.75Z" fill="#FE646F"/>
<path d="M98.628 52.75C99.6635 52.75 100.503 51.9105 100.503 50.875C100.503 49.8395 99.6635 49 98.628 49C97.5925 49 96.753 49.8395 96.753 50.875C96.753 51.9105 97.5925 52.75 98.628 52.75Z" fill="#FFD15B"/>
<path d="M104.128 52.75C105.164 52.75 106.003 51.9105 106.003 50.875C106.003 49.8395 105.164 49 104.128 49C103.092 49 102.253 49.8395 102.253 50.875C102.253 51.9105 103.092 52.75 104.128 52.75Z" fill="#80D261"/>
<path d="M114.125 7.5C115.161 7.5 116 6.66053 116 5.625C116 4.58947 115.161 3.75 114.125 3.75C113.089 3.75 112.25 4.58947 112.25 5.625C112.25 6.66053 113.089 7.5 114.125 7.5Z" fill="#0172FB"/>
<path d="M108.625 7.5C109.661 7.5 110.5 6.66053 110.5 5.625C110.5 4.58947 109.661 3.75 108.625 3.75C107.589 3.75 106.75 4.58947 106.75 5.625C106.75 6.66053 107.589 7.5 108.625 7.5Z" fill="#0172FB"/>
</svg>
