<svg width="256" height="256" viewBox="0 0 256 256" fill="none" xmlns="http://www.w3.org/2000/svg">
<g clip-path="url(#clip0_54_67)">
<path d="M256 58.6667V202.667C256 220.341 203.47 234.667 138.667 234.667C73.8634 234.667 21.3333 220.341 21.3333 202.667V58.6667" stroke="#85B6FF" stroke-width="4" stroke-linecap="round" stroke-linejoin="round"/>
<path d="M256 154.667C256 172.341 203.47 186.667 138.667 186.667C73.8634 186.667 21.3333 172.341 21.3333 154.667M256 106.667C256 124.341 203.47 138.667 138.667 138.667C73.8634 138.667 21.3333 124.341 21.3333 106.667" stroke="#85B6FF" stroke-width="4" stroke-linecap="round" stroke-linejoin="round"/>
<path d="M138.667 85.3334C203.468 85.3334 256 71.0065 256 53.3334C256 35.6603 203.468 21.3334 138.667 21.3334C73.8652 21.3334 21.3333 35.6603 21.3333 53.3334C21.3333 71.0065 73.8652 85.3334 138.667 85.3334Z" stroke="#85B6FF" stroke-width="4" stroke-linecap="round" stroke-linejoin="round"/>
</g>
<defs>
<clipPath id="clip0_54_67">
<rect width="256" height="256" fill="white"/>
</clipPath>
</defs>
</svg>
