<svg width="128" height="128" viewBox="0 0 128 128" fill="none" xmlns="http://www.w3.org/2000/svg">
<g clip-path="url(#clip0_102_179)">
<path d="M107.177 119.061H29.7625C27.2538 119.061 25.2198 117.027 25.2198 114.518V4.54275C25.2198 2.03375 27.2535 0 29.7625 0H107.177C109.686 0 111.72 2.03375 111.72 4.54275V114.518C111.719 117.027 109.686 119.061 107.177 119.061Z" fill="#3C87D0"/>
<path d="M98.2375 128H20.8233C18.3145 128 16.2805 125.966 16.2805 123.457V13.4817C16.2805 10.973 18.3143 8.93896 20.8233 8.93896H98.2375C100.746 8.93896 102.78 10.9727 102.78 13.4817V123.457C102.78 125.966 100.747 128 98.2375 128Z" fill="#C8EFFE"/>
<path d="M98.2375 8.93921H88.7437C91.2525 8.93921 93.2865 10.973 93.2865 13.482V123.457C93.2865 125.966 91.2527 128 88.7437 128H98.2375C100.746 128 102.78 125.966 102.78 123.457V13.4817C102.78 10.973 100.746 8.93921 98.2375 8.93921Z" fill="#B3DAFE"/>
<path d="M91.4898 29.5675H66.5167C65.5245 29.5675 64.72 28.763 64.72 27.7707C64.72 26.7785 65.5245 25.974 66.5167 25.974H91.4898C92.482 25.974 93.2865 26.7785 93.2865 27.7707C93.2862 28.7632 92.482 29.5675 91.4898 29.5675Z" fill="#3E5959"/>
<path d="M91.4898 37.9725H66.5167C65.5245 37.9725 64.72 37.168 64.72 36.1758C64.72 35.1835 65.5245 34.379 66.5167 34.379H91.4898C92.482 34.379 93.2865 35.1835 93.2865 36.1758C93.2862 37.168 92.482 37.9725 91.4898 37.9725Z" fill="#3E5959"/>
<path d="M91.4898 46.3772H66.5167C65.5245 46.3772 64.72 45.5727 64.72 44.5804C64.72 43.5882 65.5245 42.7837 66.5167 42.7837H91.4898C92.482 42.7837 93.2865 43.5882 93.2865 44.5804C93.2862 45.5729 92.482 46.3772 91.4898 46.3772Z" fill="#3E5959"/>
<path d="M91.4898 93.2843H68.2745C67.2822 93.2843 66.4778 92.4798 66.4778 91.4875C66.4778 90.4953 67.2822 89.6908 68.2745 89.6908H91.4898C92.482 89.6908 93.2865 90.4953 93.2865 91.4875C93.2862 92.4798 92.482 93.2843 91.4898 93.2843Z" fill="#3E5959"/>
<path d="M52.5443 75.7522H27.5713C26.579 75.7522 25.7745 74.9477 25.7745 73.9554C25.7745 72.9632 26.579 72.1587 27.5713 72.1587H52.5443C53.5365 72.1587 54.341 72.9632 54.341 73.9554C54.341 74.9477 53.5365 75.7522 52.5443 75.7522Z" fill="#3E5959"/>
<path d="M52.5443 67.3473H27.5713C26.579 67.3473 25.7745 66.5428 25.7745 65.5505C25.7745 64.5583 26.579 63.7538 27.5713 63.7538H52.5443C53.5365 63.7538 54.341 64.5583 54.341 65.5505C54.341 66.543 53.5365 67.3473 52.5443 67.3473Z" fill="#3E5959"/>
<path d="M42.4648 18.722V35.4113H59.154C59.154 26.1943 51.682 18.722 42.4648 18.722Z" fill="#EE6161"/>
<path d="M42.4647 18.722C33.2475 18.722 25.7755 26.194 25.7755 35.4113C25.7755 44.6285 33.2475 52.1005 42.4647 52.1005C51.682 52.1005 59.154 44.6285 59.154 35.4113H42.4647V18.722Z" fill="#FEA95C"/>
<path d="M92.0885 79.575H62.0858C61.4243 79.575 60.888 79.0388 60.888 78.3773V61.129C60.888 60.4675 61.4243 59.9313 62.0858 59.9313H92.0885C92.75 59.9313 93.2862 60.4675 93.2862 61.129V78.3773C93.2862 79.0388 92.75 79.575 92.0885 79.575Z" fill="#EE6161"/>
<path d="M32.2208 115.153H26.9723C26.3108 115.153 25.7745 114.617 25.7745 113.955V87.754C25.7745 87.0925 26.3108 86.5563 26.9723 86.5563H32.2208C32.8823 86.5563 33.4185 87.0925 33.4185 87.754V113.955C33.4185 114.617 32.8823 115.153 32.2208 115.153Z" fill="#FE7701"/>
<path d="M46.481 115.153H41.2325C40.571 115.153 40.0348 114.617 40.0348 113.955V94.6288C40.0348 93.9673 40.571 93.431 41.2325 93.431H46.481C47.1425 93.431 47.6788 93.9673 47.6788 94.6288V113.955C47.6788 114.617 47.1425 115.153 46.481 115.153Z" fill="#FE9738"/>
<path d="M60.7415 115.153H55.493C54.8315 115.153 54.2953 114.617 54.2953 113.955V103.194C54.2953 102.532 54.8315 101.996 55.493 101.996H60.7415C61.403 101.996 61.9393 102.532 61.9393 103.194V113.955C61.9393 114.617 61.403 115.153 60.7415 115.153Z" fill="#FEA95C"/>
<path d="M91.4898 102.112H68.2745C67.2822 102.112 66.4778 101.308 66.4778 100.315C66.4778 99.323 67.2822 98.5186 68.2745 98.5186H91.4898C92.482 98.5186 93.2865 99.323 93.2865 100.315C93.2862 101.308 92.482 102.112 91.4898 102.112Z" fill="#3E5959"/>
<path d="M91.4898 110.94H68.2745C67.2822 110.94 66.4778 110.135 66.4778 109.143C66.4778 108.151 67.2822 107.346 68.2745 107.346H91.4898C92.482 107.346 93.2865 108.151 93.2865 109.143C93.2862 110.135 92.482 110.94 91.4898 110.94Z" fill="#3E5959"/>
</g>
<defs>
<clipPath id="clip0_102_179">
<rect width="128" height="128" fill="white"/>
</clipPath>
</defs>
</svg>
