<svg width="256" height="256" viewBox="0 0 256 256" fill="none" xmlns="http://www.w3.org/2000/svg">
<g clip-path="url(#clip0_54_11)">
<path d="M64 256C99.328 256 128 236.885 128 213.333V170.667H64C28.672 170.667 0 189.781 0 213.333C0 236.885 28.672 256 64 256Z" fill="#0ACF83"/>
<path d="M0 128C0 104.448 28.672 85.3334 64 85.3334H128V170.667H64C28.672 170.667 0 151.552 0 128Z" fill="#A259FF"/>
<path d="M0 42.6667C0 19.1147 28.672 0 64 0H128V85.3333H64C28.672 85.3333 0 66.2187 0 42.6667Z" fill="#F24E1E"/>
<path d="M128 0H192C227.328 0 256 19.1147 256 42.6667C256 66.2187 227.328 85.3333 192 85.3333H128V0Z" fill="#FF7262"/>
<path d="M256 128C256 151.552 227.328 170.667 192 170.667C156.672 170.667 128 151.552 128 128C128 104.448 156.672 85.3334 192 85.3334C227.328 85.3334 256 104.448 256 128Z" fill="#1ABCFE"/>
</g>
<defs>
<clipPath id="clip0_54_11">
<rect width="256" height="256" fill="white"/>
</clipPath>
</defs>
</svg>
