<svg width="1440" height="1308" viewBox="0 0 1440 1308" fill="none" xmlns="http://www.w3.org/2000/svg">
<g style="mix-blend-mode:darken" opacity="0.3" filter="url(#filter0_d_108_11)">
<path d="M1808 381.5C1808 583.36 1643.24 747 1440 747C1236.76 747 1072 583.36 1072 381.5C1072 179.64 1236.76 16 1440 16C1643.24 16 1808 179.64 1808 381.5ZM1221.81 381.5C1221.81 501.186 1319.5 598.211 1440 598.211C1560.5 598.211 1658.19 501.186 1658.19 381.5C1658.19 261.814 1560.5 164.789 1440 164.789C1319.5 164.789 1221.81 261.814 1221.81 381.5Z" fill="#44B4F3"/>
</g>
<g style="mix-blend-mode:darken" opacity="0.5" filter="url(#filter1_d_108_11)">
<path d="M377.676 526.085C388.523 525.574 395.798 537.071 390.69 546.655L-1.84484 1283.14C-6.89455 1292.62 -20.2901 1293.12 -26.0304 1284.04L-467.133 586.864C-472.874 577.791 -466.686 565.9 -455.962 565.394L377.676 526.085Z" fill="#F1D22B"/>
</g>
<defs>
<filter id="filter0_d_108_11" x="1052" y="0" width="776" height="771" filterUnits="userSpaceOnUse" color-interpolation-filters="sRGB">
<feFlood flood-opacity="0" result="BackgroundImageFix"/>
<feColorMatrix in="SourceAlpha" type="matrix" values="0 0 0 0 0 0 0 0 0 0 0 0 0 0 0 0 0 0 127 0" result="hardAlpha"/>
<feOffset dy="4"/>
<feGaussianBlur stdDeviation="10"/>
<feComposite in2="hardAlpha" operator="out"/>
<feColorMatrix type="matrix" values="0 0 0 0 0 0 0 0 0 0 0 0 0 0 0 0 0 0 0.25 0"/>
<feBlend mode="normal" in2="BackgroundImageFix" result="effect1_dropShadow_108_11"/>
<feBlend mode="normal" in="SourceGraphic" in2="effect1_dropShadow_108_11" result="shape"/>
</filter>
<filter id="filter1_d_108_11" x="-482.322" y="517.069" width="887.679" height="790.488" filterUnits="userSpaceOnUse" color-interpolation-filters="sRGB">
<feFlood flood-opacity="0" result="BackgroundImageFix"/>
<feColorMatrix in="SourceAlpha" type="matrix" values="0 0 0 0 0 0 0 0 0 0 0 0 0 0 0 0 0 0 127 0" result="hardAlpha"/>
<feOffset dy="4"/>
<feGaussianBlur stdDeviation="6.5"/>
<feComposite in2="hardAlpha" operator="out"/>
<feColorMatrix type="matrix" values="0 0 0 0 0 0 0 0 0 0 0 0 0 0 0 0 0 0 0.25 0"/>
<feBlend mode="normal" in2="BackgroundImageFix" result="effect1_dropShadow_108_11"/>
<feBlend mode="normal" in="SourceGraphic" in2="effect1_dropShadow_108_11" result="shape"/>
</filter>
</defs>
</svg>
