<svg width="215" height="134" viewBox="0 0 215 134" fill="none" xmlns="http://www.w3.org/2000/svg">
<g filter="url(#filter0_d_103_454)">
<path fill-rule="evenodd" clip-rule="evenodd" d="M19.7327 13.323C22.838 13.3255 25.3532 15.8449 25.3507 18.9502L25.2731 112.832C25.2705 115.938 22.7511 118.453 19.6459 118.45V118.45C16.5406 118.448 14.0253 115.928 14.0279 112.823L14.1055 18.9409C14.108 15.8356 16.6274 13.3204 19.7327 13.323V13.323Z" fill="white"/>
<path fill-rule="evenodd" clip-rule="evenodd" d="M132.745 13.4162C135.85 13.4188 138.365 15.9382 138.363 19.0435L138.285 112.926C138.282 116.031 135.763 118.546 132.658 118.544V118.544C129.552 118.541 127.037 116.022 127.04 112.916L127.117 19.0342C127.12 15.9289 129.639 13.4137 132.745 13.4162V13.4162Z" fill="white"/>
<path d="M19.6991 54.0602C19.6991 54.0602 38.3523 97.4043 74.8552 97.4709C111.358 97.5375 134.025 54.1546 134.025 54.1546" stroke="white" stroke-width="8"/>
<path d="M132.758 114.105C132.758 114.105 196.188 102.37 196.958 67.1633C197.727 31.957 132.758 18.8411 132.758 18.8411" stroke="white" stroke-width="8" stroke-linecap="round"/>
</g>
<defs>
<filter id="filter0_d_103_454" x="0.027916" y="0.322998" width="214.936" height="133.221" filterUnits="userSpaceOnUse" color-interpolation-filters="sRGB">
<feFlood flood-opacity="0" result="BackgroundImageFix"/>
<feColorMatrix in="SourceAlpha" type="matrix" values="0 0 0 0 0 0 0 0 0 0 0 0 0 0 0 0 0 0 127 0" result="hardAlpha"/>
<feOffset dy="1"/>
<feGaussianBlur stdDeviation="7"/>
<feComposite in2="hardAlpha" operator="out"/>
<feColorMatrix type="matrix" values="0 0 0 0 1 0 0 0 0 1 0 0 0 0 1 0 0 0 0.55 0"/>
<feBlend mode="normal" in2="BackgroundImageFix" result="effect1_dropShadow_103_454"/>
<feBlend mode="normal" in="SourceGraphic" in2="effect1_dropShadow_103_454" result="shape"/>
</filter>
</defs>
</svg>
