<svg width="32" height="35" viewBox="0 0 32 35" fill="none" xmlns="http://www.w3.org/2000/svg">
<path d="M11.6133 20.7331C11.4257 20.5392 11.1876 20.4079 10.9291 20.3556C10.6705 20.3033 10.403 20.3324 10.1602 20.4392C9.99478 20.5022 9.84455 20.6025 9.72013 20.7331C9.59572 20.8637 9.50016 21.0214 9.4402 21.195C9.35372 21.4079 9.31887 21.6399 9.33876 21.8704C9.35866 22.1009 9.43268 22.3226 9.55421 22.5156C9.67573 22.7087 9.84097 22.8672 10.0351 22.9768C10.2293 23.0864 10.4463 23.1438 10.6668 23.1438C10.8872 23.1438 11.1042 23.0864 11.2984 22.9768C11.4926 22.8672 11.6578 22.7087 11.7793 22.5156C11.9008 22.3226 11.9749 22.1009 11.9948 21.8704C12.0147 21.6399 11.9798 21.4079 11.8933 21.195C11.8259 21.0254 11.7312 20.8691 11.6133 20.7331ZM22.28 20.7331C22.0222 20.4833 21.6842 20.3446 21.3334 20.3446C20.9825 20.3446 20.6446 20.4833 20.3868 20.7331C20.2689 20.8692 20.1742 21.0254 20.1068 21.1951C20.0027 21.4496 19.9738 21.731 20.0237 22.0029C20.0736 22.2749 20.2 22.5248 20.3867 22.7205C20.5162 22.8442 20.6651 22.9437 20.8268 23.0145C20.9863 23.0884 21.1588 23.1265 21.3333 23.1265C21.5077 23.1265 21.6802 23.0884 21.8398 23.0145C22.0013 22.9433 22.1501 22.844 22.2799 22.7205C22.4665 22.5249 22.593 22.2749 22.6429 22.003C22.6928 21.7311 22.6639 21.4497 22.5599 21.1952C22.4925 21.0255 22.3978 20.8692 22.28 20.7331ZM25.7459 27.1786C26.6898 26.3888 27.4103 25.3434 27.8296 24.1552C28.2489 22.9671 28.3511 21.6812 28.125 20.4365L26.125 9.23985C25.8383 7.63604 25.0267 6.18782 23.8305 5.1456C22.6343 4.10339 21.1288 3.5327 19.5742 3.53223H12.4258C10.8712 3.53272 9.36568 4.10342 8.1695 5.14564C6.97333 6.18787 6.16171 7.63609 5.87499 9.23991L3.87499 20.4366C3.64897 21.6813 3.75111 22.9671 4.1704 24.1553C4.58969 25.3435 5.3102 26.3889 6.25414 27.1787L4.39066 29.1348C4.26502 29.2644 4.16507 29.4187 4.09657 29.589C4.02808 29.7593 3.99241 29.9421 3.99161 30.127C3.99081 30.3118 4.02491 30.495 4.09193 30.6659C4.15895 30.8369 4.25756 30.9922 4.38208 31.1229C4.5066 31.2536 4.65455 31.3571 4.81739 31.4274C4.98023 31.4978 5.15473 31.5336 5.33082 31.5327C5.50691 31.5319 5.6811 31.4945 5.84333 31.4226C6.00555 31.3507 6.15261 31.2457 6.27599 31.1139L8.76818 28.4978C9.30947 28.6461 9.86637 28.7223 10.4258 28.7248H21.5742C22.1336 28.7224 22.6905 28.6461 23.2318 28.4979L25.724 31.1139C25.9748 31.3724 26.3127 31.5165 26.6642 31.5148C27.0156 31.5131 27.3523 31.3658 27.6008 31.1049C27.8494 30.844 27.9897 30.4907 27.9913 30.1217C27.9929 29.7528 27.8556 29.3981 27.6093 29.1348L25.7459 27.1786ZM8.49478 9.75656C8.66717 8.79431 9.15429 7.92546 9.87202 7.30009C10.5897 6.67472 11.493 6.33209 12.4258 6.3314H19.5742C20.507 6.33209 21.4102 6.67472 22.128 7.30009C22.8457 7.92546 23.3328 8.79431 23.5052 9.75656L23.9674 12.3443C22.972 13.5333 21.7464 14.4859 20.3725 15.1384C18.9986 15.791 17.508 16.1285 16 16.1285C14.492 16.1285 13.0013 15.791 11.6274 15.1384C10.2535 14.4859 9.02799 13.5333 8.03254 12.3443L8.49478 9.75656ZM24.651 24.4084C24.2764 24.8838 23.8063 25.2662 23.2744 25.5285C22.7425 25.7908 22.1619 25.9264 21.5742 25.9256H10.4258C9.83813 25.9254 9.25775 25.7893 8.72589 25.527C8.19403 25.2647 7.72375 24.8826 7.34848 24.4079C6.97321 23.9332 6.70217 23.3776 6.55462 22.7805C6.40707 22.1834 6.38664 21.5596 6.49478 20.9533L7.44286 15.6455C9.83698 17.7651 12.868 18.9277 16 18.9277C19.1319 18.9277 22.163 17.7651 24.5571 15.6455L25.5052 20.9533C25.6143 21.5597 25.5943 22.1839 25.4467 22.7812C25.299 23.3786 25.0273 23.9343 24.651 24.4084Z" fill="#4275FA"/>
</svg>
