<svg width="277" height="51" viewBox="0 0 277 51" fill="none" xmlns="http://www.w3.org/2000/svg">
<path d="M9.352 34.18C8.464 34.18 7.828 33.988 7.444 33.604C7.06 33.196 6.868 32.44 6.868 31.336C6.868 30.592 6.94 29.644 7.084 28.492C7.252 27.316 7.516 25.708 7.876 23.668C8.5 19.9 8.992 16.636 9.352 13.876C9.568 12.148 9.676 10.708 9.676 9.556C9.676 8.476 9.28 7.936 8.488 7.936C7.864 7.936 7.108 8.26 6.22 8.908C5.356 9.532 4.396 10.54 3.34 11.932C3.004 12.388 2.632 12.616 2.224 12.616C1.888 12.616 1.588 12.46 1.324 12.148C1.084 11.812 0.964 11.44 0.964 11.032C0.964 10.648 1.036 10.264 1.18 9.88C1.348 9.472 1.612 9.016 1.972 8.512C3.124 6.904 4.408 5.668 5.824 4.804C7.24 3.916 8.656 3.472 10.072 3.472C11.392 3.472 12.4 3.892 13.096 4.732C13.816 5.572 14.176 6.796 14.176 8.404C14.176 9.052 14.116 9.82 13.996 10.708C13.876 11.572 13.768 12.28 13.672 12.832C13.576 13.384 13.504 13.768 13.456 13.984C14.824 10.072 16.36 7.348 18.064 5.812C19.768 4.252 21.64 3.472 23.68 3.472C25.24 3.472 26.464 4.024 27.352 5.128C28.264 6.232 28.72 7.792 28.72 9.808C28.72 10.6 28.612 11.584 28.396 12.76C29.596 9.448 31 7.072 32.608 5.632C34.216 4.192 36.064 3.472 38.152 3.472C39.832 3.472 41.116 4.012 42.004 5.092C42.916 6.172 43.372 7.684 43.372 9.628C43.372 10.684 43.216 11.968 42.904 13.48L40.708 23.776C40.468 24.976 40.348 26.008 40.348 26.872C40.348 27.88 40.576 28.636 41.032 29.14C41.512 29.644 42.172 29.896 43.012 29.896C43.804 29.896 44.572 29.632 45.316 29.104C46.084 28.576 46.984 27.7 48.016 26.476C48.304 26.14 48.628 25.972 48.988 25.972C49.3 25.972 49.54 26.116 49.708 26.404C49.9 26.692 49.996 27.088 49.996 27.592C49.996 28.528 49.768 29.272 49.312 29.824C48.064 31.336 46.828 32.44 45.604 33.136C44.38 33.832 43.096 34.18 41.752 34.18C39.712 34.18 38.116 33.58 36.964 32.38C35.812 31.156 35.236 29.524 35.236 27.484C35.236 26.068 35.524 24.016 36.1 21.328L37.54 14.74C37.588 14.524 37.672 14.14 37.792 13.588C37.912 13.036 38.008 12.52 38.08 12.04C38.152 11.536 38.188 11.044 38.188 10.564C38.188 9.724 38.02 9.1 37.684 8.692C37.372 8.26 36.916 8.044 36.316 8.044C35.188 8.044 34 8.776 32.752 10.24C31.528 11.68 30.352 14.08 29.224 17.44C28.12 20.8 27.22 25.168 26.524 30.544C26.356 31.984 26.056 32.956 25.624 33.46C25.216 33.94 24.544 34.18 23.608 34.18C22.792 34.18 22.192 33.988 21.808 33.604C21.448 33.22 21.268 32.5 21.268 31.444C21.268 30.46 21.4 29.176 21.664 27.592C21.928 25.984 22.264 24.1 22.672 21.94C23.776 16.132 24.328 12.388 24.328 10.708C24.328 9.796 24.148 9.124 23.788 8.692C23.452 8.26 22.936 8.044 22.24 8.044C21.064 8.044 19.852 8.716 18.604 10.06C17.356 11.38 16.132 13.744 14.932 17.152C13.756 20.536 12.772 25.12 11.98 30.904C11.812 32.128 11.56 32.98 11.224 33.46C10.912 33.94 10.288 34.18 9.352 34.18ZM53.9712 14.848C52.9632 14.848 52.2072 14.62 51.7032 14.164C51.1992 13.684 50.9472 13.024 50.9472 12.184C50.9472 11.344 51.2712 10.648 51.9192 10.096C52.5912 9.52 53.4192 9.232 54.4032 9.232C55.2912 9.232 56.0112 9.448 56.5632 9.88C57.1152 10.312 57.3912 10.924 57.3912 11.716C57.3912 12.676 57.0792 13.444 56.4552 14.02C55.8312 14.572 55.0032 14.848 53.9712 14.848ZM53.6832 34.18C52.1232 34.18 50.9832 33.628 50.2632 32.524C49.5672 31.42 49.2192 29.956 49.2192 28.132C49.2192 27.052 49.3512 25.672 49.6152 23.992C49.9032 22.288 50.2632 20.704 50.6952 19.24C50.9112 18.472 51.1992 17.944 51.5592 17.656C51.9192 17.368 52.4952 17.224 53.2872 17.224C54.5112 17.224 55.1232 17.632 55.1232 18.448C55.1232 19.048 54.8952 20.44 54.4392 22.624C53.8632 25.264 53.5752 27.052 53.5752 27.988C53.5752 28.708 53.6712 29.26 53.8632 29.644C54.0552 30.028 54.3792 30.22 54.8352 30.22C55.2672 30.22 55.8072 29.92 56.4552 29.32C57.1032 28.72 57.9672 27.772 59.0472 26.476C59.3352 26.14 59.6592 25.972 60.0192 25.972C60.3312 25.972 60.5712 26.116 60.7392 26.404C60.9312 26.692 61.0272 27.088 61.0272 27.592C61.0272 28.552 60.7992 29.296 60.3432 29.824C57.9672 32.728 55.7472 34.18 53.6832 34.18ZM80.2546 25.972C80.5666 25.972 80.8066 26.116 80.9746 26.404C81.1666 26.692 81.2626 27.088 81.2626 27.592C81.2626 28.552 81.0346 29.296 80.5786 29.824C79.4746 31.096 78.3346 32.14 77.1586 32.956C76.0066 33.772 74.6866 34.18 73.1986 34.18C71.9746 34.18 71.0506 33.832 70.4266 33.136C69.8026 32.416 69.4906 31.384 69.4906 30.04C69.4906 29.368 69.6586 28.168 69.9946 26.44C70.3066 24.928 70.4626 23.884 70.4626 23.308C70.4626 22.924 70.3306 22.732 70.0666 22.732C69.7546 22.732 69.3106 23.14 68.7346 23.956C68.1586 24.748 67.5826 25.804 67.0066 27.124C66.4306 28.444 65.9626 29.836 65.6026 31.3C65.1466 33.22 64.0186 34.18 62.2186 34.18C61.4986 34.18 61.0186 33.928 60.7786 33.424C60.5626 32.896 60.4546 31.96 60.4546 30.616C60.4546 29.848 60.4666 29.236 60.4906 28.78L60.5266 25.9C60.5266 22.204 60.8986 18.352 61.6426 14.344C62.4106 10.336 63.5266 6.976 64.9906 4.264C66.4786 1.528 68.2546 0.159998 70.3186 0.159998C71.4226 0.159998 72.3106 0.639998 72.9826 1.6C73.6786 2.536 74.0266 3.76 74.0266 5.272C74.0266 7.696 73.3186 10.216 71.9026 12.832C70.4866 15.424 68.1826 18.46 64.9906 21.94C64.9186 23.188 64.8826 24.472 64.8826 25.792C65.6746 23.752 66.5506 22.096 67.5106 20.824C68.4946 19.528 69.4546 18.604 70.3906 18.052C71.3506 17.5 72.2266 17.224 73.0186 17.224C74.5786 17.224 75.3586 18.004 75.3586 19.564C75.3586 20.5 75.0946 22.192 74.5666 24.64C74.1106 26.728 73.8826 28.108 73.8826 28.78C73.8826 29.74 74.2306 30.22 74.9266 30.22C75.4066 30.22 75.9706 29.932 76.6186 29.356C77.2906 28.756 78.1786 27.796 79.2826 26.476C79.5706 26.14 79.8946 25.972 80.2546 25.972ZM69.5626 3.724C69.1306 3.724 68.6506 4.348 68.1226 5.596C67.5946 6.82 67.0786 8.488 66.5746 10.6C66.0946 12.688 65.6986 14.968 65.3866 17.44C66.8746 15.688 68.0986 13.78 69.0586 11.716C70.0426 9.652 70.5346 7.78 70.5346 6.1C70.5346 5.332 70.4506 4.744 70.2826 4.336C70.1146 3.928 69.8746 3.724 69.5626 3.724ZM85.2209 14.848C84.2129 14.848 83.4569 14.62 82.9529 14.164C82.4489 13.684 82.1969 13.024 82.1969 12.184C82.1969 11.344 82.5209 10.648 83.1689 10.096C83.8409 9.52 84.6689 9.232 85.6529 9.232C86.5409 9.232 87.2609 9.448 87.8129 9.88C88.3649 10.312 88.6409 10.924 88.6409 11.716C88.6409 12.676 88.3289 13.444 87.7049 14.02C87.0809 14.572 86.2529 14.848 85.2209 14.848ZM84.9329 34.18C83.3729 34.18 82.2329 33.628 81.5129 32.524C80.8169 31.42 80.4689 29.956 80.4689 28.132C80.4689 27.052 80.6009 25.672 80.8649 23.992C81.1529 22.288 81.5129 20.704 81.9449 19.24C82.1609 18.472 82.4489 17.944 82.8089 17.656C83.1689 17.368 83.7449 17.224 84.5369 17.224C85.7609 17.224 86.3729 17.632 86.3729 18.448C86.3729 19.048 86.1449 20.44 85.6889 22.624C85.1129 25.264 84.8249 27.052 84.8249 27.988C84.8249 28.708 84.9209 29.26 85.1129 29.644C85.3049 30.028 85.6289 30.22 86.0849 30.22C86.5169 30.22 87.0569 29.92 87.7049 29.32C88.3529 28.72 89.2169 27.772 90.2969 26.476C90.5849 26.14 90.9089 25.972 91.2689 25.972C91.5809 25.972 91.8209 26.116 91.9889 26.404C92.1809 26.692 92.2769 27.088 92.2769 27.592C92.2769 28.552 92.0489 29.296 91.5929 29.824C89.2169 32.728 86.9969 34.18 84.9329 34.18ZM106.068 22.156C106.596 22.156 107.04 22.348 107.4 22.732C107.784 23.092 107.976 23.548 107.976 24.1C107.976 24.412 107.904 24.748 107.76 25.108C107.376 25.996 106.836 26.74 106.14 27.34C105.444 27.94 104.676 28.24 103.836 28.24C103.164 28.24 102.588 28 102.108 27.52C101.652 27.04 101.424 26.392 101.424 25.576C101.424 25.12 101.448 24.628 101.496 24.1C101.544 23.716 101.568 23.452 101.568 23.308C101.568 23.116 101.52 22.972 101.424 22.876C101.352 22.78 101.256 22.732 101.136 22.732C100.8 22.732 100.344 23.14 99.7682 23.956C99.1923 24.748 98.6163 25.804 98.0403 27.124C97.4642 28.444 96.9962 29.836 96.6362 31.3C96.3722 32.452 96.0722 33.22 95.7362 33.604C95.4002 33.988 94.8482 34.18 94.0802 34.18C93.1682 34.18 92.5202 33.7 92.1362 32.74C91.7762 31.78 91.5962 30.244 91.5962 28.132C91.5962 25.012 92.0402 22.048 92.9282 19.24C93.1442 18.544 93.4922 18.04 93.9722 17.728C94.4762 17.392 95.1722 17.224 96.0602 17.224C96.5402 17.224 96.8762 17.284 97.0682 17.404C97.2602 17.524 97.3562 17.752 97.3562 18.088C97.3562 18.472 97.1762 19.336 96.8162 20.68C96.5762 21.64 96.3842 22.48 96.2402 23.2C96.0962 23.92 95.9762 24.808 95.8802 25.864C96.6722 23.8 97.5602 22.12 98.5442 20.824C99.5282 19.528 100.488 18.604 101.424 18.052C102.36 17.5 103.212 17.224 103.98 17.224C104.676 17.224 105.204 17.428 105.564 17.836C105.948 18.22 106.14 18.796 106.14 19.564C106.14 20.02 106.008 20.884 105.744 22.156H106.068ZM132.556 34.18C131.164 34.18 129.592 34.06 127.84 33.82C126.88 33.7 126.22 33.448 125.86 33.064C125.5 32.68 125.344 32.056 125.392 31.192C125.56 28.816 125.956 25.888 126.58 22.408C127.204 18.904 127.96 15.532 128.848 12.292C129.016 11.692 129.352 11.272 129.856 11.032C130.36 10.792 131.02 10.672 131.836 10.672C133.3 10.672 134.032 11.08 134.032 11.896C134.032 12.232 133.96 12.616 133.816 13.048C133.192 14.968 132.568 17.548 131.944 20.788C131.32 24.004 130.876 27.076 130.612 30.004C131.332 30.076 132.148 30.112 133.06 30.112C137.26 30.112 140.392 28.84 142.456 26.296C144.544 23.752 145.588 20.356 145.588 16.108C145.588 13.252 144.772 11.044 143.14 9.484C141.508 7.924 139.204 7.144 136.228 7.144C134.308 7.144 132.4 7.444 130.504 8.044C128.632 8.644 126.94 9.436 125.428 10.42C125.116 10.636 124.78 10.744 124.42 10.744C124.012 10.744 123.688 10.576 123.448 10.24C123.208 9.88 123.088 9.448 123.088 8.944C123.088 8.368 123.184 7.9 123.376 7.54C123.568 7.156 123.892 6.808 124.348 6.496C126.004 5.368 127.948 4.516 130.18 3.94C132.412 3.34 134.56 3.04 136.624 3.04C139.552 3.04 142.084 3.556 144.22 4.588C146.356 5.596 148 7.084 149.152 9.052C150.304 11.02 150.88 13.396 150.88 16.18C150.88 19.804 150.16 22.972 148.72 25.684C147.28 28.372 145.18 30.46 142.42 31.948C139.66 33.436 136.372 34.18 132.556 34.18ZM175.43 25.972C175.742 25.972 175.982 26.116 176.15 26.404C176.342 26.692 176.438 27.088 176.438 27.592C176.438 28.552 176.21 29.296 175.754 29.824C174.65 31.096 173.51 32.14 172.334 32.956C171.182 33.772 169.862 34.18 168.374 34.18C167.15 34.18 166.226 33.832 165.602 33.136C164.978 32.416 164.666 31.384 164.666 30.04C164.666 29.368 164.834 28.168 165.17 26.44C165.482 24.928 165.638 23.884 165.638 23.308C165.638 22.924 165.506 22.732 165.242 22.732C164.93 22.732 164.486 23.14 163.91 23.956C163.334 24.748 162.758 25.804 162.182 27.124C161.606 28.444 161.138 29.836 160.778 31.3C160.322 33.22 159.194 34.18 157.394 34.18C156.674 34.18 156.194 33.928 155.954 33.424C155.738 32.896 155.63 31.96 155.63 30.616C155.63 29.848 155.642 29.236 155.666 28.78L155.702 25.9C155.702 22.204 156.074 18.352 156.818 14.344C157.586 10.336 158.702 6.976 160.166 4.264C161.654 1.528 163.43 0.159998 165.494 0.159998C166.598 0.159998 167.486 0.639998 168.158 1.6C168.854 2.536 169.202 3.76 169.202 5.272C169.202 7.696 168.494 10.216 167.078 12.832C165.662 15.424 163.358 18.46 160.166 21.94C160.094 23.188 160.058 24.472 160.058 25.792C160.85 23.752 161.726 22.096 162.686 20.824C163.67 19.528 164.63 18.604 165.566 18.052C166.526 17.5 167.402 17.224 168.194 17.224C169.754 17.224 170.534 18.004 170.534 19.564C170.534 20.5 170.27 22.192 169.742 24.64C169.286 26.728 169.058 28.108 169.058 28.78C169.058 29.74 169.406 30.22 170.102 30.22C170.582 30.22 171.146 29.932 171.794 29.356C172.466 28.756 173.354 27.796 174.458 26.476C174.746 26.14 175.07 25.972 175.43 25.972ZM164.738 3.724C164.306 3.724 163.826 4.348 163.298 5.596C162.77 6.82 162.254 8.488 161.75 10.6C161.27 12.688 160.874 14.968 160.562 17.44C162.05 15.688 163.274 13.78 164.234 11.716C165.218 9.652 165.71 7.78 165.71 6.1C165.71 5.332 165.626 4.744 165.458 4.336C165.29 3.928 165.05 3.724 164.738 3.724ZM180.108 34.18C178.62 34.18 177.432 33.64 176.544 32.56C175.656 31.48 175.212 30.064 175.212 28.312C175.212 26.392 175.656 24.58 176.544 22.876C177.432 21.148 178.608 19.768 180.072 18.736C181.56 17.68 183.132 17.152 184.788 17.152C185.316 17.152 185.664 17.26 185.832 17.476C186.024 17.668 186.18 18.028 186.3 18.556C186.804 18.46 187.332 18.412 187.884 18.412C189.06 18.412 189.648 18.832 189.648 19.672C189.648 20.176 189.468 21.376 189.108 23.272C188.556 26.032 188.28 27.952 188.28 29.032C188.28 29.392 188.364 29.68 188.532 29.896C188.724 30.112 188.964 30.22 189.252 30.22C189.708 30.22 190.26 29.932 190.908 29.356C191.556 28.756 192.432 27.796 193.536 26.476C193.824 26.14 194.148 25.972 194.508 25.972C194.82 25.972 195.06 26.116 195.228 26.404C195.42 26.692 195.516 27.088 195.516 27.592C195.516 28.552 195.288 29.296 194.832 29.824C193.848 31.048 192.804 32.08 191.7 32.92C190.596 33.76 189.528 34.18 188.496 34.18C187.704 34.18 186.972 33.916 186.3 33.388C185.652 32.836 185.16 32.092 184.824 31.156C183.576 33.172 182.004 34.18 180.108 34.18ZM181.404 30.544C181.932 30.544 182.436 30.232 182.916 29.608C183.396 28.984 183.744 28.156 183.96 27.124L185.292 20.5C184.284 20.524 183.348 20.908 182.484 21.652C181.644 22.372 180.972 23.332 180.468 24.532C179.964 25.732 179.712 27.004 179.712 28.348C179.712 29.092 179.856 29.644 180.144 30.004C180.456 30.364 180.876 30.544 181.404 30.544ZM197.306 34.18C196.394 34.18 195.746 33.7 195.362 32.74C195.002 31.78 194.822 30.244 194.822 28.132C194.822 25.012 195.266 22.048 196.154 19.24C196.37 18.544 196.718 18.04 197.198 17.728C197.702 17.392 198.398 17.224 199.286 17.224C199.766 17.224 200.102 17.284 200.294 17.404C200.486 17.524 200.582 17.752 200.582 18.088C200.582 18.472 200.402 19.336 200.042 20.68C199.802 21.64 199.61 22.48 199.466 23.2C199.322 23.92 199.202 24.808 199.106 25.864C199.898 23.8 200.786 22.12 201.77 20.824C202.754 19.528 203.714 18.604 204.65 18.052C205.61 17.5 206.486 17.224 207.278 17.224C208.838 17.224 209.618 18.004 209.618 19.564C209.618 19.876 209.51 20.632 209.294 21.832C209.102 22.792 209.006 23.392 209.006 23.632C209.006 24.472 209.306 24.892 209.906 24.892C210.578 24.892 211.442 24.364 212.498 23.308C212.81 22.996 213.134 22.84 213.47 22.84C213.782 22.84 214.022 22.984 214.19 23.272C214.382 23.536 214.478 23.896 214.478 24.352C214.478 25.24 214.238 25.936 213.758 26.44C213.086 27.136 212.294 27.736 211.382 28.24C210.494 28.72 209.546 28.96 208.538 28.96C207.266 28.96 206.294 28.636 205.622 27.988C204.974 27.34 204.65 26.464 204.65 25.36C204.65 25 204.686 24.64 204.758 24.28C204.806 23.8 204.83 23.476 204.83 23.308C204.83 22.924 204.698 22.732 204.434 22.732C204.074 22.732 203.594 23.14 202.994 23.956C202.418 24.748 201.842 25.804 201.266 27.124C200.69 28.444 200.222 29.836 199.862 31.3C199.598 32.428 199.286 33.196 198.926 33.604C198.59 33.988 198.05 34.18 197.306 34.18ZM217.721 34.18C216.233 34.18 215.045 33.64 214.157 32.56C213.269 31.48 212.825 30.064 212.825 28.312C212.825 26.392 213.269 24.58 214.157 22.876C215.045 21.148 216.221 19.768 217.685 18.736C219.173 17.68 220.745 17.152 222.401 17.152C222.929 17.152 223.277 17.26 223.445 17.476C223.637 17.668 223.793 18.028 223.913 18.556C224.417 18.46 224.945 18.412 225.497 18.412C226.673 18.412 227.261 18.832 227.261 19.672C227.261 20.176 227.081 21.376 226.721 23.272C226.169 26.032 225.893 27.952 225.893 29.032C225.893 29.392 225.977 29.68 226.145 29.896C226.337 30.112 226.577 30.22 226.865 30.22C227.321 30.22 227.873 29.932 228.521 29.356C229.169 28.756 230.045 27.796 231.149 26.476C231.437 26.14 231.761 25.972 232.121 25.972C232.433 25.972 232.673 26.116 232.841 26.404C233.033 26.692 233.129 27.088 233.129 27.592C233.129 28.552 232.901 29.296 232.445 29.824C231.461 31.048 230.417 32.08 229.313 32.92C228.209 33.76 227.141 34.18 226.109 34.18C225.317 34.18 224.585 33.916 223.913 33.388C223.265 32.836 222.773 32.092 222.437 31.156C221.189 33.172 219.617 34.18 217.721 34.18ZM219.017 30.544C219.545 30.544 220.049 30.232 220.529 29.608C221.009 28.984 221.357 28.156 221.573 27.124L222.905 20.5C221.897 20.524 220.961 20.908 220.097 21.652C219.257 22.372 218.585 23.332 218.081 24.532C217.577 25.732 217.325 27.004 217.325 28.348C217.325 29.092 217.469 29.644 217.757 30.004C218.069 30.364 218.489 30.544 219.017 30.544ZM237.079 14.848C236.071 14.848 235.315 14.62 234.811 14.164C234.307 13.684 234.055 13.024 234.055 12.184C234.055 11.344 234.379 10.648 235.027 10.096C235.699 9.52 236.527 9.232 237.511 9.232C238.399 9.232 239.119 9.448 239.671 9.88C240.223 10.312 240.499 10.924 240.499 11.716C240.499 12.676 240.187 13.444 239.563 14.02C238.939 14.572 238.111 14.848 237.079 14.848ZM236.791 34.18C235.231 34.18 234.091 33.628 233.371 32.524C232.675 31.42 232.327 29.956 232.327 28.132C232.327 27.052 232.459 25.672 232.723 23.992C233.011 22.288 233.371 20.704 233.803 19.24C234.019 18.472 234.307 17.944 234.667 17.656C235.027 17.368 235.603 17.224 236.395 17.224C237.619 17.224 238.231 17.632 238.231 18.448C238.231 19.048 238.003 20.44 237.547 22.624C236.971 25.264 236.683 27.052 236.683 27.988C236.683 28.708 236.779 29.26 236.971 29.644C237.163 30.028 237.487 30.22 237.943 30.22C238.375 30.22 238.915 29.92 239.563 29.32C240.211 28.72 241.075 27.772 242.155 26.476C242.443 26.14 242.767 25.972 243.127 25.972C243.439 25.972 243.679 26.116 243.847 26.404C244.039 26.692 244.135 27.088 244.135 27.592C244.135 28.552 243.907 29.296 243.451 29.824C241.075 32.728 238.855 34.18 236.791 34.18ZM261.814 26.044C262.126 26.044 262.366 26.2 262.534 26.512C262.726 26.8 262.822 27.172 262.822 27.628C262.822 28.18 262.738 28.612 262.57 28.924C262.402 29.236 262.138 29.512 261.778 29.752L254.866 34.396C253.954 39.364 252.754 43.264 251.266 46.096C249.802 48.952 247.93 50.38 245.65 50.38C244.426 50.38 243.43 49.996 242.662 49.228C241.894 48.484 241.51 47.5 241.51 46.276C241.51 45.148 241.762 43.996 242.266 42.82C242.794 41.644 243.754 40.288 245.146 38.752C246.562 37.24 248.554 35.5 251.122 33.532L251.23 32.704C251.398 31.816 251.59 30.544 251.806 28.888C251.326 30.616 250.654 31.936 249.79 32.848C248.926 33.736 248.014 34.18 247.054 34.18C245.974 34.18 245.086 33.688 244.39 32.704C243.718 31.696 243.382 30.448 243.382 28.96C243.382 27.16 243.502 25.516 243.742 24.028C243.982 22.516 244.378 20.92 244.93 19.24C245.17 18.52 245.506 18.004 245.938 17.692C246.37 17.38 247.054 17.224 247.99 17.224C248.518 17.224 248.878 17.308 249.07 17.476C249.286 17.644 249.394 17.896 249.394 18.232C249.394 18.424 249.262 19.072 248.998 20.176C248.758 21.064 248.566 21.868 248.422 22.588C248.23 23.572 248.062 24.52 247.918 25.432C247.774 26.32 247.702 27.052 247.702 27.628C247.702 28.54 247.954 28.996 248.458 28.996C248.818 28.996 249.262 28.636 249.79 27.916C250.342 27.196 250.918 26.104 251.518 24.64C252.142 23.176 252.742 21.376 253.318 19.24C253.51 18.52 253.798 18.004 254.182 17.692C254.59 17.38 255.19 17.224 255.982 17.224C256.534 17.224 256.918 17.296 257.134 17.44C257.35 17.584 257.458 17.824 257.458 18.16C257.458 18.76 257.146 20.824 256.522 24.352L255.586 30.148C257.434 28.756 259.234 27.484 260.986 26.332C261.298 26.14 261.574 26.044 261.814 26.044ZM246.046 46.888C246.646 46.888 247.318 46.192 248.062 44.8C248.806 43.408 249.55 41.092 250.294 37.852C248.446 39.412 247.102 40.828 246.262 42.1C245.446 43.396 245.038 44.524 245.038 45.484C245.038 45.892 245.11 46.228 245.254 46.492C245.422 46.756 245.686 46.888 246.046 46.888ZM266.557 34.18C265.189 34.18 264.073 33.64 263.209 32.56C262.369 31.48 261.949 30.064 261.949 28.312C261.949 26.392 262.393 24.58 263.281 22.876C264.169 21.148 265.345 19.768 266.809 18.736C268.297 17.68 269.869 17.152 271.525 17.152C272.053 17.152 272.401 17.26 272.569 17.476C272.761 17.668 272.917 18.028 273.037 18.556C273.493 18.46 273.997 18.412 274.549 18.412C275.125 18.412 275.569 18.556 275.881 18.844C276.193 19.132 276.349 19.54 276.349 20.068C276.349 20.62 276.229 21.58 275.989 22.948C275.725 24.412 275.521 25.816 275.377 27.16C275.233 28.48 275.161 29.968 275.161 31.624C275.161 32.536 274.969 33.196 274.585 33.604C274.225 33.988 273.625 34.18 272.785 34.18C271.969 34.18 271.357 33.988 270.949 33.604C270.565 33.196 270.373 32.548 270.373 31.66L270.409 31.084C269.665 33.148 268.381 34.18 266.557 34.18ZM267.961 30.544C268.633 30.544 269.245 30.076 269.797 29.14C270.349 28.204 270.841 26.536 271.273 24.136L271.957 20.5C270.973 20.524 270.061 20.908 269.221 21.652C268.381 22.372 267.709 23.332 267.205 24.532C266.701 25.732 266.449 27.004 266.449 28.348C266.449 29.068 266.581 29.62 266.845 30.004C267.133 30.364 267.505 30.544 267.961 30.544Z" fill="white"/>
</svg>
