<svg width="37" height="34" viewBox="0 0 37 34" fill="none" xmlns="http://www.w3.org/2000/svg">
<path d="M9.89981 16.2094C12.661 17.1012 15.5738 17.5306 18.5 17.477C21.4262 17.5302 24.3391 17.1005 27.1002 16.2083C29.2554 15.4359 30.0197 14.5774 30.0197 14.0833V10.3062C29.2662 10.7698 28.4578 11.1534 27.6101 11.4494C24.6888 12.4106 21.6026 12.8793 18.5 12.8328C15.3977 12.8784 12.3118 12.4105 9.3899 11.4515C8.54176 11.1555 7.73328 10.7712 6.98028 10.3062V14.078C6.98028 14.5817 7.74687 15.4359 9.89981 16.2094ZM9.89981 23.3335C10.8752 23.6753 11.8811 23.9387 12.9061 24.1208C14.7492 24.4484 16.6227 24.6096 18.5 24.6021C20.3772 24.61 22.2508 24.4491 24.0939 24.1218C25.1189 23.9398 26.1248 23.6763 27.1002 23.3345C29.2554 22.5621 30.0197 21.7036 30.0197 21.2095V17.6077C29.3969 17.9521 28.7422 18.2454 28.0633 18.4842C24.9944 19.4827 21.7551 19.966 18.5 19.9112C15.2446 19.9643 12.0052 19.4792 8.93665 18.4789C8.25808 18.2395 7.60348 17.9462 6.98028 17.6023V21.2074C6.98028 21.7025 7.74687 22.5578 9.89981 23.3335ZM18.5 31.8749C24.8594 31.8749 30.0197 30.0219 30.0197 27.7375V24.7232C29.4531 25.0371 28.8595 25.3079 28.2449 25.5328L28.0633 25.5998C24.995 26.6012 21.7556 27.0874 18.5 27.0352C15.2442 27.089 12.0046 26.6027 8.93665 25.5998C8.87422 25.5785 8.81409 25.5541 8.75512 25.5328C8.14049 25.3079 7.5469 25.0371 6.98028 24.7232V27.7375C6.98028 30.0219 12.1406 31.8749 18.5 31.8749Z" fill="#FFDA44"/>
<path d="M18.5 10.3997C24.8622 10.3997 30.0197 8.54738 30.0197 6.26237C30.0197 3.97737 24.8622 2.125 18.5 2.125C12.1378 2.125 6.98028 3.97737 6.98028 6.26237C6.98028 8.54738 12.1378 10.3997 18.5 10.3997Z" fill="#FFDA44"/>
</svg>
