<svg width="32" height="35" viewBox="0 0 32 35" fill="none" xmlns="http://www.w3.org/2000/svg">
<path d="M25.3333 3.58179H6.66667C5.60581 3.58179 4.58839 4.02416 3.83824 4.81157C3.0881 5.59899 2.66667 6.66697 2.66667 7.78055V27.3747C2.66667 28.4883 3.0881 29.5563 3.83824 30.3437C4.58839 31.1311 5.60581 31.5735 6.66667 31.5735H25.3333C26.3942 31.5735 27.4116 31.1311 28.1618 30.3437C28.9119 29.5563 29.3333 28.4883 29.3333 27.3747V7.78055C29.3333 6.66697 28.9119 5.59899 28.1618 4.81157C27.4116 4.02416 26.3942 3.58179 25.3333 3.58179ZM21.4533 6.38096L16.12 11.9793H10.5467L15.88 6.38096H21.4533ZM5.33334 7.78055C5.33334 7.40935 5.47381 7.05336 5.72386 6.79089C5.97391 6.52842 6.31305 6.38096 6.66667 6.38096H12.12L6.78667 11.9793H5.33334V7.78055ZM26.6667 27.3747C26.6667 27.7459 26.5262 28.1019 26.2761 28.3644C26.0261 28.6269 25.687 28.7743 25.3333 28.7743H6.66667C6.31305 28.7743 5.97391 28.6269 5.72386 28.3644C5.47381 28.1019 5.33334 27.7459 5.33334 27.3747V14.7785H26.6667V27.3747ZM26.6667 11.9793H19.88L25.2133 6.38096H25.3333C25.687 6.38096 26.0261 6.52842 26.2761 6.79089C26.5262 7.05336 26.6667 7.40935 26.6667 7.78055V11.9793Z" fill="#4275FA"/>
</svg>
